<?xml version="1.0" encoding="UTF-8"?>
<svg width="100pt" height="100pt" version="1.1" viewBox="5 15.05 90 69.91" xmlns="http://www.w3.org/2000/svg">
    <path d="m50 32.051c6.5391-10.309 16.398-14.652 24.93-14.348 5.1992 0.1875 9.9219 2.1055 13.133 5.4531 3.2344 3.375 4.9375 8.1758 4.0625 14.102-1.6797 11.371-13 27.023-41.652 44.676-0.30078 0.1875-0.67188 0.17578-0.95312 0-28.652-17.656-39.973-33.305-41.652-44.676-0.875-5.9219 0.82812-10.723 4.0625-14.098 3.2109-3.3477 7.9336-5.2656 13.133-5.4531 8.5312-0.30859 18.391 4.0352 24.93 14.348zm9.0234-12.672c-3.1406 1.9141-5.9375 4.3789-8.3281 7.2344l-0.11328 0.11328c-0.38281 0.32031-0.96094 0.26953-1.2812-0.11328-2.3906-2.8555-5.1875-5.3203-8.3281-7.2344-2.9688-1.8125-6.2617-3.1328-9.8008-3.8242-3.9805-0.77734-8.1875-0.68359-12.062 0.41797-3.5273 1.0039-6.7891 2.8477-9.3477 5.625-3.1797 3.457-4.5898 7.5039-4.7461 11.676-0.19141 4.9805 1.3789 10.164 3.832 14.789 3.9023 7.3594 10.219 14.23 17.297 20.332 7.0898 6.1133 14.949 11.461 21.93 15.762l0.73047 0.44531c0.375 0.23438 0.78516 0.35156 1.1953 0.35156 0.39062 0 0.78125-0.10547 1.1445-0.31641l0.72266-0.44531c6.9961-4.3047 14.879-9.6641 21.988-15.797 7.0781-6.1016 13.395-12.973 17.297-20.332 2.4492-4.6211 4.0195-9.8086 3.832-14.789-0.16016-4.1719-1.5664-8.2188-4.7461-11.676-2.5586-2.7812-5.8203-4.625-9.3477-5.625-3.875-1.1016-8.082-1.1953-12.062-0.41797-3.543 0.69141-6.832 2.0117-9.8008 3.8242zm21.652 22.789c-0.23047 0.44141-0.78125 0.61719-1.2227 0.38281-0.44141-0.23047-0.61719-0.78125-0.38281-1.2227l0.12109-0.24219c0.22266-0.44922 0.76953-0.63281 1.2148-0.41406 0.44922 0.22266 0.63281 0.76953 0.41406 1.2148l-0.14453 0.27734zm2.1875-6.2227c-0.074219 0.49609-0.53906 0.83984-1.0352 0.76563-0.49609-0.074219-0.83984-0.53906-0.76562-1.0352 0.14844-0.98047 0.16797-1.9414-0.023438-2.7969-0.16016-0.71094-0.47266-1.3672-0.98047-1.918-0.50781-0.55469-1.1445-0.98438-1.8516-1.2969-0.81641-0.36328-1.7383-0.58984-2.6797-0.70312-0.49609-0.058594-0.85938-0.50781-0.80078-1.0078 0.058594-0.5 0.50781-0.85938 1.0078-0.80078 1.1094 0.12891 2.2109 0.40234 3.2109 0.85156 0.92578 0.41406 1.7656 0.98047 2.4453 1.7227 0.73438 0.79688 1.1836 1.7383 1.4141 2.75 0.25 1.1094 0.23437 2.293 0.054687 3.4688zm-7.9961-16.43c-8.2852-0.30078-17.945 4.1484-24.082 14.738-0.078125 0.13281-0.1875 0.24609-0.33203 0.33203-0.43359 0.25-0.99219 0.10156-1.2422-0.33203-6.1367-10.586-15.793-15.035-24.082-14.738-4.7305 0.17188-9.0078 1.8945-11.891 4.8984-2.8594 2.9805-4.3555 7.2578-3.5703 12.578 1.6016 10.852 12.566 25.898 40.328 43.098 27.762-17.199 38.727-32.242 40.328-43.098 0.78516-5.3203-0.71484-9.5977-3.5703-12.578-2.8828-3.0039-7.1602-4.7266-11.891-4.8984z" fill="#402728"/>
</svg>
