<?xml version="1.0" encoding="UTF-8"?>
<svg width="100pt" height="100pt" version="1.1" viewBox="6.36 6.36 87.27 87.27" xmlns="http://www.w3.org/2000/svg">
    <path d="m50 6.3633c12.051 0 22.957 4.8828 30.855 12.781 7.8945 7.8984 12.781 18.805 12.781 30.855s-4.8828 22.957-12.781 30.855c-7.8984 7.8945-18.805 12.781-30.855 12.781s-22.957-4.8828-30.855-12.781c-7.8945-7.8984-12.781-18.805-12.781-30.855s4.8828-22.957 12.781-30.855c7.8984-7.8945 18.805-12.781 30.855-12.781zm-12.43 24.242c-1.1484 0-2.0781 0.92969-2.0781 2.0781v34.633c0 1.1484 0.92969 2.0781 2.0781 2.0781h7.3789c1.1484 0 2.0781-0.92969 2.0781-2.0781v-34.633c0-1.1484-0.92969-2.0781-2.0781-2.0781zm17.477 0c-1.1484 0-2.0781 0.92969-2.0781 2.0781v34.633c0 1.1484 0.92969 2.0781 2.0781 2.0781h7.3789c1.1484 0 2.0781-0.92969 2.0781-2.0781l0.003906-34.633c0-1.1484-0.92969-2.0781-2.0781-2.0781z" fill="#222222" fill-rule="evenodd"/>
</svg>
