<?xml version="1.0" encoding="UTF-8"?>
<svg width="100pt" height="100pt" version="1.1" viewBox="6.36 6.36 87.27 87.27" xmlns="http://www.w3.org/2000/svg">
    <path d="m50 6.3633c12.051 0 22.957 4.8828 30.855 12.781 7.8945 7.8984 12.781 18.805 12.781 30.855s-4.8828 22.957-12.781 30.855c-7.8984 7.8945-18.805 12.781-30.855 12.781s-22.957-4.8828-30.855-12.781c-7.8945-7.8984-12.781-18.805-12.781-30.855s4.8828-22.957 12.781-30.855c7.8984-7.8945 18.805-12.781 30.855-12.781zm20.16 45.441c0.31641-0.17578 0.58984-0.4375 0.78516-0.77344 0.57031-0.99219 0.22656-2.2539-0.76172-2.8242l-14.996-8.6602-14.824-8.5586c-0.33984-0.24219-0.75391-0.38281-1.2031-0.38281-1.1484 0-2.0781 0.92969-2.0781 2.0781v34.633h0.007813c0 0.35156 0.089844 0.70703 0.27344 1.0312 0.57031 0.99219 1.8359 1.332 2.8242 0.76172l14.996-8.6602z" fill="#222222" fill-rule="evenodd"/>
</svg>
